<?xml version="1.0" encoding="utf-8"?>
<!-- Generator: Adobe Illustrator 24.3.0, SVG Export Plug-In . SVG Version: 6.00 Build 0)  -->
<svg version="1.1" id="Capa_3" xmlns="http://www.w3.org/2000/svg" xmlns:xlink="http://www.w3.org/1999/xlink" x="0px" y="0px"
	 width="40px" height="40px" viewBox="0 0 40 40" enable-background="new 0 0 40 40" xml:space="preserve">
<g id="Face_2_">
	<ellipse fill="#1A272C" stroke="#FFFFFF" stroke-miterlimit="10" cx="20" cy="20" rx="19.4" ry="19.4"/>
	<g id="Capa_5_1_">
		<g id="Ojos_1_">
			<path fill="#FFFFFF" d="M10.7,23.7c-2.8,0-5.1-2.3-5.1-5.1s2.3-5.1,5.1-5.1s5.1,2.3,5.1,5.1S13.5,23.7,10.7,23.7z M10.7,14.6
				c-2.2,0-4,1.8-4,4s1.8,4,4,4s4-1.8,4-4S12.9,14.6,10.7,14.6z"/>
			<path fill="#FFFFFF" d="M28.4,23.7c-2.8,0-5.1-2.3-5.1-5.1s2.3-5.1,5.1-5.1s5.1,2.3,5.1,5.1S31.2,23.7,28.4,23.7z M28.4,14.6
				c-2.2,0-4,1.8-4,4s1.8,4,4,4s4-1.8,4-4S30.6,14.6,28.4,14.6z"/>
		</g>
		<g id="Boca_1_">
			<path fill="#FFFFFF" d="M20.1,30.1h-0.1c-2.1-0.1-3.7-1.3-3.7-2.9h1.2c0,0.9,1.2,1.7,2.6,1.7c1.4,0,2.6-0.8,2.6-1.7h1.1
				C23.8,28.8,22.2,30.1,20.1,30.1L20.1,30.1z"/>
		</g>
		<g id="Brillo_1_">
			<ellipse fill="#FFFFFF" cx="9.7" cy="18.2" rx="1.3" ry="1.3"/>
			<ellipse fill="#FFFFFF" cx="27.1" cy="18.2" rx="1.3" ry="1.3"/>
		</g>
	</g>
</g>
</svg>
