<?xml version="1.0" encoding="utf-8"?>
<!-- Generator: Adobe Illustrator 24.3.0, SVG Export Plug-In . SVG Version: 6.00 Build 0)  -->
<svg version="1.1" id="openai-horizontal" xmlns="http://www.w3.org/2000/svg" xmlns:xlink="http://www.w3.org/1999/xlink" x="0px"
	 y="0px" width="29.1px" height="29.5px" viewBox="0 0 29.1 29.5" enable-background="new 0 0 29.1 29.5" xml:space="preserve">
<path fill="#0404AC" d="M24.7,12.6c0.6-1.6,0.3-3.4-0.5-4.8c-1.3-2.2-3.9-3.4-6.4-2.9c-1.1-1.3-2.8-2-4.5-2c-2.6,0-4.9,1.7-5.7,4.2
	C6,7.4,4.6,8.5,3.7,9.9c-1.3,2.2-1,5,0.7,7c-0.6,1.6-0.3,3.4,0.5,4.8c1.3,2.2,3.8,3.4,6.4,2.9c1.1,1.3,2.7,2,4.4,2
	c2.6,0,4.9-1.7,5.7-4.1c1.7-0.3,3.1-1.4,3.9-2.9C26.8,17.4,26.4,14.6,24.7,12.6L24.7,12.6z M22.8,8.6c0.5,0.9,0.7,1.9,0.6,3
	c0,0-0.1-0.1-0.2-0.1l-4.7-2.7c-0.2-0.2-0.6-0.2-0.8,0l-5.5,3.2V9.6l4.6-2.6C18.9,5.7,21.6,6.5,22.8,8.6z M12.3,13.4l2.3-1.4
	l2.3,1.4v2.7l-2.3,1.4l-2.3-1.4C12.3,16.1,12.3,13.4,12.3,13.4z M13.3,4.5c1,0,2.1,0.3,2.8,1c0,0-0.1,0.1-0.2,0.1l-4.7,2.7
	c-0.2,0.2-0.3,0.4-0.3,0.6v6.4l-2-1.2V8.9C8.9,6.5,10.9,4.5,13.3,4.5L13.3,4.5z M5.1,10.7L5.1,10.7c0.5-0.9,1.4-1.6,2.3-1.9v5.6
	c0,0.3,0.2,0.6,0.4,0.6l5.5,3.2l-2,1.2l-4.6-2.6C4.6,15.5,3.9,12.8,5.1,10.7z M6.3,21L6.3,21c-0.6-0.9-0.7-1.9-0.6-3
	c0,0,0.1,0.1,0.2,0.1l4.7,2.7c0.2,0.2,0.6,0.2,0.8,0l5.5-3.2v2.3l-4.6,2.6C10.2,23.8,7.6,23.1,6.3,21L6.3,21z M15.8,25
	c-1,0-2.1-0.4-2.8-1c0,0,0.1-0.1,0.2-0.1l4.7-2.7c0.2-0.2,0.4-0.4,0.4-0.6v-6.4l2,1.2v5.3C20.3,23,18.3,25,15.8,25L15.8,25z
	 M24.1,18.8c-0.5,0.9-1.4,1.6-2.3,1.9v-5.6c0-0.3-0.2-0.6-0.4-0.6l0,0l-5.5-3.2l2-1.1l4.6,2.6C24.6,14,25.3,16.7,24.1,18.8
	L24.1,18.8z"/>
<path fill="#0404AC" d="M24.7,12.6c0.6-1.6,0.3-3.4-0.5-4.8c-1.3-2.2-3.9-3.4-6.4-2.9c-1.1-1.3-2.8-2-4.5-2c-2.6,0-4.9,1.7-5.7,4.2
	C6,7.4,4.6,8.5,3.7,9.9c-1.3,2.2-1,5,0.7,7c-0.6,1.6-0.3,3.4,0.5,4.8c1.3,2.2,3.8,3.4,6.4,2.9c1.1,1.3,2.7,2,4.4,2
	c2.6,0,4.9-1.7,5.7-4.1c1.7-0.3,3.1-1.4,3.9-2.9C26.8,17.4,26.4,14.6,24.7,12.6L24.7,12.6z M22.8,8.6c0.5,0.9,0.7,1.9,0.6,3
	c0,0-0.1-0.1-0.2-0.1l-4.7-2.7c-0.2-0.2-0.6-0.2-0.8,0l-5.5,3.2V9.6l4.6-2.6C18.9,5.7,21.6,6.5,22.8,8.6z M12.3,13.4l2.3-1.4
	l2.3,1.4v2.7l-2.3,1.4l-2.3-1.4C12.3,16.1,12.3,13.4,12.3,13.4z M13.3,4.5c1,0,2.1,0.3,2.8,1c0,0-0.1,0.1-0.2,0.1l-4.7,2.7
	c-0.2,0.2-0.3,0.4-0.3,0.6v6.4l-2-1.2V8.9C8.9,6.5,10.9,4.5,13.3,4.5L13.3,4.5z M5.1,10.7L5.1,10.7c0.5-0.9,1.4-1.6,2.3-1.9v5.6
	c0,0.3,0.2,0.6,0.4,0.6l5.5,3.2l-2,1.2l-4.6-2.6C4.6,15.5,3.9,12.8,5.1,10.7z M6.3,21L6.3,21c-0.6-0.9-0.7-1.9-0.6-3
	c0,0,0.1,0.1,0.2,0.1l4.7,2.7c0.2,0.2,0.6,0.2,0.8,0l5.5-3.2v2.3l-4.6,2.6C10.2,23.8,7.6,23.1,6.3,21L6.3,21z M15.8,25
	c-1,0-2.1-0.4-2.8-1c0,0,0.1-0.1,0.2-0.1l4.7-2.7c0.2-0.2,0.4-0.4,0.4-0.6v-6.4l2,1.2v5.3C20.3,23,18.3,25,15.8,25L15.8,25z
	 M24.1,18.8c-0.5,0.9-1.4,1.6-2.3,1.9v-5.6c0-0.3-0.2-0.6-0.4-0.6l0,0l-5.5-3.2l2-1.1l4.6,2.6C24.6,14,25.3,16.7,24.1,18.8
	L24.1,18.8z"/>
<path fill="#0404AC" d="M24.7,12.6c0.6-1.6,0.3-3.4-0.5-4.8c-1.3-2.2-3.9-3.4-6.4-2.9c-1.1-1.3-2.8-2-4.5-2c-2.6,0-4.9,1.7-5.7,4.2
	C6,7.4,4.6,8.5,3.7,9.9c-1.3,2.2-1,5,0.7,7c-0.6,1.6-0.3,3.4,0.5,4.8c1.3,2.2,3.8,3.4,6.4,2.9c1.1,1.3,2.7,2,4.4,2
	c2.6,0,4.9-1.7,5.7-4.1c1.7-0.3,3.1-1.4,3.9-2.9C26.8,17.4,26.4,14.6,24.7,12.6L24.7,12.6z M22.8,8.6c0.5,0.9,0.7,1.9,0.6,3
	c0,0-0.1-0.1-0.2-0.1l-4.7-2.7c-0.2-0.2-0.6-0.2-0.8,0l-5.5,3.2V9.6l4.6-2.6C18.9,5.7,21.6,6.5,22.8,8.6z M12.3,13.4l2.3-1.4
	l2.3,1.4v2.7l-2.3,1.4l-2.3-1.4C12.3,16.1,12.3,13.4,12.3,13.4z M13.3,4.5c1,0,2.1,0.3,2.8,1c0,0-0.1,0.1-0.2,0.1l-4.7,2.7
	c-0.2,0.2-0.3,0.4-0.3,0.6v6.4l-2-1.2V8.9C8.9,6.5,10.9,4.5,13.3,4.5L13.3,4.5z M5.1,10.7L5.1,10.7c0.5-0.9,1.4-1.6,2.3-1.9v5.6
	c0,0.3,0.2,0.6,0.4,0.6l5.5,3.2l-2,1.2l-4.6-2.6C4.6,15.5,3.9,12.8,5.1,10.7z M6.3,21L6.3,21c-0.6-0.9-0.7-1.9-0.6-3
	c0,0,0.1,0.1,0.2,0.1l4.7,2.7c0.2,0.2,0.6,0.2,0.8,0l5.5-3.2v2.3l-4.6,2.6C10.2,23.8,7.6,23.1,6.3,21L6.3,21z M15.8,25
	c-1,0-2.1-0.4-2.8-1c0,0,0.1-0.1,0.2-0.1l4.7-2.7c0.2-0.2,0.4-0.4,0.4-0.6v-6.4l2,1.2v5.3C20.3,23,18.3,25,15.8,25L15.8,25z
	 M24.1,18.8c-0.5,0.9-1.4,1.6-2.3,1.9v-5.6c0-0.3-0.2-0.6-0.4-0.6l0,0l-5.5-3.2l2-1.1l4.6,2.6C24.6,14,25.3,16.7,24.1,18.8
	L24.1,18.8z"/>
<path fill="#0404AC" d="M24.7,12.6c0.6-1.6,0.3-3.4-0.5-4.8c-1.3-2.2-3.9-3.4-6.4-2.9c-1.1-1.3-2.8-2-4.5-2c-2.6,0-4.9,1.7-5.7,4.2
	C6,7.4,4.6,8.5,3.7,9.9c-1.3,2.2-1,5,0.7,7c-0.6,1.6-0.3,3.4,0.5,4.8c1.3,2.2,3.8,3.4,6.4,2.9c1.1,1.3,2.7,2,4.4,2
	c2.6,0,4.9-1.7,5.7-4.1c1.7-0.3,3.1-1.4,3.9-2.9C26.8,17.4,26.4,14.6,24.7,12.6L24.7,12.6z M22.8,8.6c0.5,0.9,0.7,1.9,0.6,3
	c0,0-0.1-0.1-0.2-0.1l-4.7-2.7c-0.2-0.2-0.6-0.2-0.8,0l-5.5,3.2V9.6l4.6-2.6C18.9,5.7,21.6,6.5,22.8,8.6z M12.3,13.4l2.3-1.4
	l2.3,1.4v2.7l-2.3,1.4l-2.3-1.4C12.3,16.1,12.3,13.4,12.3,13.4z M13.3,4.5c1,0,2.1,0.3,2.8,1c0,0-0.1,0.1-0.2,0.1l-4.7,2.7
	c-0.2,0.2-0.3,0.4-0.3,0.6v6.4l-2-1.2V8.9C8.9,6.5,10.9,4.5,13.3,4.5L13.3,4.5z M5.1,10.7L5.1,10.7c0.5-0.9,1.4-1.6,2.3-1.9v5.6
	c0,0.3,0.2,0.6,0.4,0.6l5.5,3.2l-2,1.2l-4.6-2.6C4.6,15.5,3.9,12.8,5.1,10.7z M6.3,21L6.3,21c-0.6-0.9-0.7-1.9-0.6-3
	c0,0,0.1,0.1,0.2,0.1l4.7,2.7c0.2,0.2,0.6,0.2,0.8,0l5.5-3.2v2.3l-4.6,2.6C10.2,23.8,7.6,23.1,6.3,21L6.3,21z M15.8,25
	c-1,0-2.1-0.4-2.8-1c0,0,0.1-0.1,0.2-0.1l4.7-2.7c0.2-0.2,0.4-0.4,0.4-0.6v-6.4l2,1.2v5.3C20.3,23,18.3,25,15.8,25L15.8,25z
	 M24.1,18.8c-0.5,0.9-1.4,1.6-2.3,1.9v-5.6c0-0.3-0.2-0.6-0.4-0.6l0,0l-5.5-3.2l2-1.1l4.6,2.6C24.6,14,25.3,16.7,24.1,18.8
	L24.1,18.8z"/>
<path fill="#0404AC" d="M24.7,12.6c0.6-1.6,0.3-3.4-0.5-4.8c-1.3-2.2-3.9-3.4-6.4-2.9c-1.1-1.3-2.8-2-4.5-2c-2.6,0-4.9,1.7-5.7,4.2
	C6,7.4,4.6,8.5,3.7,9.9c-1.3,2.2-1,5,0.7,7c-0.6,1.6-0.3,3.4,0.5,4.8c1.3,2.2,3.8,3.4,6.4,2.9c1.1,1.3,2.7,2,4.4,2
	c2.6,0,4.9-1.7,5.7-4.1c1.7-0.3,3.1-1.4,3.9-2.9C26.8,17.4,26.4,14.6,24.7,12.6L24.7,12.6z M22.8,8.6c0.5,0.9,0.7,1.9,0.6,3
	c0,0-0.1-0.1-0.2-0.1l-4.7-2.7c-0.2-0.2-0.6-0.2-0.8,0l-5.5,3.2V9.6l4.6-2.6C18.9,5.7,21.6,6.5,22.8,8.6z M12.3,13.4l2.3-1.4
	l2.3,1.4v2.7l-2.3,1.4l-2.3-1.4C12.3,16.1,12.3,13.4,12.3,13.4z M13.3,4.5c1,0,2.1,0.3,2.8,1c0,0-0.1,0.1-0.2,0.1l-4.7,2.7
	c-0.2,0.2-0.3,0.4-0.3,0.6v6.4l-2-1.2V8.9C8.9,6.5,10.9,4.5,13.3,4.5L13.3,4.5z M5.1,10.7L5.1,10.7c0.5-0.9,1.4-1.6,2.3-1.9v5.6
	c0,0.3,0.2,0.6,0.4,0.6l5.5,3.2l-2,1.2l-4.6-2.6C4.6,15.5,3.9,12.8,5.1,10.7z M6.3,21L6.3,21c-0.6-0.9-0.7-1.9-0.6-3
	c0,0,0.1,0.1,0.2,0.1l4.7,2.7c0.2,0.2,0.6,0.2,0.8,0l5.5-3.2v2.3l-4.6,2.6C10.2,23.8,7.6,23.1,6.3,21L6.3,21z M15.8,25
	c-1,0-2.1-0.4-2.8-1c0,0,0.1-0.1,0.2-0.1l4.7-2.7c0.2-0.2,0.4-0.4,0.4-0.6v-6.4l2,1.2v5.3C20.3,23,18.3,25,15.8,25L15.8,25z
	 M24.1,18.8c-0.5,0.9-1.4,1.6-2.3,1.9v-5.6c0-0.3-0.2-0.6-0.4-0.6l0,0l-5.5-3.2l2-1.1l4.6,2.6C24.6,14,25.3,16.7,24.1,18.8
	L24.1,18.8z"/>
<path fill="#0404AC" d="M24.7,12.6c0.6-1.6,0.3-3.4-0.5-4.8c-1.3-2.2-3.9-3.4-6.4-2.9c-1.1-1.3-2.8-2-4.5-2c-2.6,0-4.9,1.7-5.7,4.2
	C6,7.4,4.6,8.5,3.7,9.9c-1.3,2.2-1,5,0.7,7c-0.6,1.6-0.3,3.4,0.5,4.8c1.3,2.2,3.8,3.4,6.4,2.9c1.1,1.3,2.7,2,4.4,2
	c2.6,0,4.9-1.7,5.7-4.1c1.7-0.3,3.1-1.4,3.9-2.9C26.8,17.4,26.4,14.6,24.7,12.6L24.7,12.6z M22.8,8.6c0.5,0.9,0.7,1.9,0.6,3
	c0,0-0.1-0.1-0.2-0.1l-4.7-2.7c-0.2-0.2-0.6-0.2-0.8,0l-5.5,3.2V9.6l4.6-2.6C18.9,5.7,21.6,6.5,22.8,8.6z M12.3,13.4l2.3-1.4
	l2.3,1.4v2.7l-2.3,1.4l-2.3-1.4C12.3,16.1,12.3,13.4,12.3,13.4z M13.3,4.5c1,0,2.1,0.3,2.8,1c0,0-0.1,0.1-0.2,0.1l-4.7,2.7
	c-0.2,0.2-0.3,0.4-0.3,0.6v6.4l-2-1.2V8.9C8.9,6.5,10.9,4.5,13.3,4.5L13.3,4.5z M5.1,10.7L5.1,10.7c0.5-0.9,1.4-1.6,2.3-1.9v5.6
	c0,0.3,0.2,0.6,0.4,0.6l5.5,3.2l-2,1.2l-4.6-2.6C4.6,15.5,3.9,12.8,5.1,10.7z M6.3,21L6.3,21c-0.6-0.9-0.7-1.9-0.6-3
	c0,0,0.1,0.1,0.2,0.1l4.7,2.7c0.2,0.2,0.6,0.2,0.8,0l5.5-3.2v2.3l-4.6,2.6C10.2,23.8,7.6,23.1,6.3,21L6.3,21z M15.8,25
	c-1,0-2.1-0.4-2.8-1c0,0,0.1-0.1,0.2-0.1l4.7-2.7c0.2-0.2,0.4-0.4,0.4-0.6v-6.4l2,1.2v5.3C20.3,23,18.3,25,15.8,25L15.8,25z
	 M24.1,18.8c-0.5,0.9-1.4,1.6-2.3,1.9v-5.6c0-0.3-0.2-0.6-0.4-0.6l0,0l-5.5-3.2l2-1.1l4.6,2.6C24.6,14,25.3,16.7,24.1,18.8
	L24.1,18.8z"/>
<path fill="#0404AC" d="M24.7,12.6c0.6-1.6,0.3-3.4-0.5-4.8c-1.3-2.2-3.9-3.4-6.4-2.9c-1.1-1.3-2.8-2-4.5-2c-2.6,0-4.9,1.7-5.7,4.2
	C6,7.4,4.6,8.5,3.7,9.9c-1.3,2.2-1,5,0.7,7c-0.6,1.6-0.3,3.4,0.5,4.8c1.3,2.2,3.8,3.4,6.4,2.9c1.1,1.3,2.7,2,4.4,2
	c2.6,0,4.9-1.7,5.7-4.1c1.7-0.3,3.1-1.4,3.9-2.9C26.8,17.4,26.4,14.6,24.7,12.6L24.7,12.6z M22.8,8.6c0.5,0.9,0.7,1.9,0.6,3
	c0,0-0.1-0.1-0.2-0.1l-4.7-2.7c-0.2-0.2-0.6-0.2-0.8,0l-5.5,3.2V9.6l4.6-2.6C18.9,5.7,21.6,6.5,22.8,8.6z M12.3,13.4l2.3-1.4
	l2.3,1.4v2.7l-2.3,1.4l-2.3-1.4C12.3,16.1,12.3,13.4,12.3,13.4z M13.3,4.5c1,0,2.1,0.3,2.8,1c0,0-0.1,0.1-0.2,0.1l-4.7,2.7
	c-0.2,0.2-0.3,0.4-0.3,0.6v6.4l-2-1.2V8.9C8.9,6.5,10.9,4.5,13.3,4.5L13.3,4.5z M5.1,10.7L5.1,10.7c0.5-0.9,1.4-1.6,2.3-1.9v5.6
	c0,0.3,0.2,0.6,0.4,0.6l5.5,3.2l-2,1.2l-4.6-2.6C4.6,15.5,3.9,12.8,5.1,10.7z M6.3,21L6.3,21c-0.6-0.9-0.7-1.9-0.6-3
	c0,0,0.1,0.1,0.2,0.1l4.7,2.7c0.2,0.2,0.6,0.2,0.8,0l5.5-3.2v2.3l-4.6,2.6C10.2,23.8,7.6,23.1,6.3,21L6.3,21z M15.8,25
	c-1,0-2.1-0.4-2.8-1c0,0,0.1-0.1,0.2-0.1l4.7-2.7c0.2-0.2,0.4-0.4,0.4-0.6v-6.4l2,1.2v5.3C20.3,23,18.3,25,15.8,25L15.8,25z
	 M24.1,18.8c-0.5,0.9-1.4,1.6-2.3,1.9v-5.6c0-0.3-0.2-0.6-0.4-0.6l0,0l-5.5-3.2l2-1.1l4.6,2.6C24.6,14,25.3,16.7,24.1,18.8
	L24.1,18.8z"/>
</svg>
